<svg xmlns="http://www.w3.org/2000/svg" xmlns:xlink="http://www.w3.org/1999/xlink" width="300" height="54.033" viewBox="0 0 300 54.033">
  <defs>
    <clipPath id="clip-path">
      <path id="Caminho_669" data-name="Caminho 669" d="M47.314,0a.635.635,0,0,0-.6.443L41.659,15.956h-.014L31.212,48a1.772,1.772,0,0,1-.518.74l-.059.03a1.582,1.582,0,0,1-.783.355.659.659,0,0,1-.739-.547.64.64,0,0,1,.546-.739.434.434,0,0,0,.177-.074l.015-.015a.693.693,0,0,0,.133-.177L38.7,20.806,44.63,2.677a.646.646,0,0,0-.413-.814.67.67,0,0,0-.828.414L37.6,20.318,28.153,49.671a1.729,1.729,0,0,1-.532.754,1.593,1.593,0,0,1-.828.384.641.641,0,0,1-.739-.547.649.649,0,0,1,.547-.739.372.372,0,0,0,.192-.089.411.411,0,0,0,.134-.177L37.285,17.021l.03-.089.37-1.123L41.3,4.525a.645.645,0,1,0-1.227-.4L36.34,15.808l-9.976,31.2v.014l-1.227,3.83-.014.015-.089.295a2.049,2.049,0,0,1-.842,1.154,1.792,1.792,0,0,1-.975.295,1.7,1.7,0,0,1-.975-.309,1.965,1.965,0,0,1-.783-1.11L14.186,29.428l-.443,3.3a.648.648,0,1,1-1.285-.164l.8-5.929-.71-2.085L11.35,33.6a.648.648,0,0,1-1.286-.163L11.6,21.8a.485.485,0,0,0-.724-.473.721.721,0,0,0-.281.548l-1.7,12.7A.648.648,0,1,1,7.61,34.41l1.7-12.687a1.991,1.991,0,0,1,.857-1.493,1.726,1.726,0,0,1,.842-.281,1.9,1.9,0,0,1,1.877,1.494l9.8,29.367a.782.782,0,0,0,.281.429.5.5,0,0,0,.251.074.6.6,0,0,0,.266-.074.9.9,0,0,0,.325-.473l.03-.089L13.463,19.949c0-.015-.014-.03-.03-.044l-.014-.014c-.029-.03-.074-.03-.133-.03a.668.668,0,0,1-.651-.65.656.656,0,0,1,.651-.651,1.642,1.642,0,0,1,.886.267l.045.043a1.466,1.466,0,0,1,.487.694l9.8,29.028.562-1.759L15.679,18.75a.192.192,0,0,0-.044-.059.184.184,0,0,0-.133-.044.634.634,0,0,1-.65-.636.656.656,0,0,1,.65-.65,1.45,1.45,0,0,1,.871.266,1.361,1.361,0,0,1,.532.739l8.822,26.366L34.98,15.808H3.354A3.421,3.421,0,0,0,0,19.21V54.033H47.438a3.421,3.421,0,0,0,3.4-3.4V15.808H43.064L47.941.858A.657.657,0,0,0,47.527.03.64.64,0,0,0,47.345,0Z" transform="translate(0 -0.001)" fill="none"/>
    </clipPath>
    <linearGradient id="linear-gradient" x1="0.084" y1="1" x2="1.307" y2="0.071" gradientUnits="objectBoundingBox">
      <stop offset="0" stop-color="#2e307b"/>
      <stop offset="0.119" stop-color="#2e307b"/>
      <stop offset="0.84" stop-color="#09949f"/>
      <stop offset="1" stop-color="#09949f"/>
    </linearGradient>
    <clipPath id="clip-path-2">
      <rect id="Ret창ngulo_555" data-name="Ret창ngulo 555" width="300" height="54.033" fill="none"/>
    </clipPath>
  </defs>
  <g id="Grupo_2241" data-name="Grupo 2241" transform="translate(0 0)">
    <g id="Grupo_1977" data-name="Grupo 1977" transform="translate(0 0.001)">
      <g id="Grupo_1976" data-name="Grupo 1976" clip-path="url(#clip-path)">
        <rect id="Ret창ngulo_554" data-name="Ret창ngulo 554" width="50.836" height="54.032" transform="translate(0 0)" fill="url(#linear-gradient)"/>
      </g>
    </g>
    <g id="Grupo_1979" data-name="Grupo 1979" transform="translate(0 0)">
      <g id="Grupo_1978" data-name="Grupo 1978" clip-path="url(#clip-path-2)">
        <path id="Caminho_670" data-name="Caminho 670" d="M78.769,58.349h-.447L65.5,30.152h6.858l6.411,14.856,6.453-14.856h6.353Zm18.206-1.04V30.152h16.733v5.6H103.269v4.909h8.937V46.22h-8.937v5.372h10.583v5.717Zm32.4-22.2H128.3v7.507h1.371a6.187,6.187,0,0,0,3.754-.982,3.406,3.406,0,0,0,1.285-2.844,3.175,3.175,0,0,0-1.256-2.815,7.376,7.376,0,0,0-4.086-.866m-7.349,22.2V30.152H129a23.166,23.166,0,0,1,5.212.447,9.166,9.166,0,0,1,3.263,1.458,7.483,7.483,0,0,1,2.353,2.685,7.147,7.147,0,0,1,.837,3.379,7.723,7.723,0,0,1-1.313,4.49,8.483,8.483,0,0,1-3.754,3.017l8.287,11.68h-7.407L129.229,46.64H128.3V57.309Zm26.421-7.666a22.784,22.784,0,0,0,4.259,2.137,10.108,10.108,0,0,0,3.422.621,4.526,4.526,0,0,0,2.7-.736,2.248,2.248,0,0,0,1.011-1.906c0-1.111-1.2-2.353-3.624-3.739-.39-.216-.693-.4-.895-.519l-1.848-1.04a11.471,11.471,0,0,1-3.956-3.422,7.534,7.534,0,0,1-1.3-4.331,6.758,6.758,0,0,1,2.484-5.385,9.568,9.568,0,0,1,6.382-2.093,15.367,15.367,0,0,1,3.118.346,29.512,29.512,0,0,1,3.755,1.04v6.367a21.716,21.716,0,0,0-3.726-1.906,8.743,8.743,0,0,0-3-.664,3.528,3.528,0,0,0-2.151.592,1.861,1.861,0,0,0-.794,1.588,2.113,2.113,0,0,0,.476,1.329,4.057,4.057,0,0,0,1.4,1.126l3.176,1.761a16.92,16.92,0,0,1,5.385,4.086,7.238,7.238,0,0,1,1.386,4.432,8.249,8.249,0,0,1-2.714,6.425,10.309,10.309,0,0,1-7.19,2.44,18.466,18.466,0,0,1-3.292-.318,32.508,32.508,0,0,1-3.912-1Zm30.565-5.905a8.689,8.689,0,0,0,2.079,5.92,6.645,6.645,0,0,0,10.208.014,8.691,8.691,0,0,0,2.064-5.934A8.755,8.755,0,0,0,191.3,37.76a6.634,6.634,0,0,0-10.208,0,8.764,8.764,0,0,0-2.079,5.978m-6.67,0a15.155,15.155,0,0,1,1.04-5.645,14.207,14.207,0,0,1,3.061-4.721,13.279,13.279,0,0,1,4.447-3.046,13.505,13.505,0,0,1,5.3-1.054A13.667,13.667,0,0,1,196,33.415a13.169,13.169,0,0,1,3,4.634,15.323,15.323,0,0,1,1.025,5.689,15.781,15.781,0,0,1-.707,4.794,13.679,13.679,0,0,1-2.122,4.1,13.909,13.909,0,0,1-4.881,4.1,13.555,13.555,0,0,1-15.881-2.686,14.088,14.088,0,0,1-3.061-4.692,15,15,0,0,1-1.04-5.616" transform="translate(-9.671 -4.315)" fill="#2e307b"/>
        <path id="Caminho_671" data-name="Caminho 671" d="M235.461,57.495V36.011h-8.619V30.322h23.706v5.689h-8.6V57.495Zm21.411,0V30.322h16.733v5.6H263.167v4.91H272.1v5.573h-8.937v5.371H273.75v5.718Zm45.1-18.567a13.073,13.073,0,0,0-3.566-2.7,8.7,8.7,0,0,0-3.8-.866,7.288,7.288,0,0,0-5.631,2.368,8.616,8.616,0,0,0-2.195,6.107,8.51,8.51,0,0,0,2.166,6.049,7.462,7.462,0,0,0,5.66,2.31,10.472,10.472,0,0,0,4.115-.866,16.174,16.174,0,0,0,4.086-2.584l-.4,7.2a14,14,0,0,1-3.812,1.8,15.278,15.278,0,0,1-4.3.621,14.455,14.455,0,0,1-4.606-.751,14.046,14.046,0,0,1-8.071-7.248,15.072,15.072,0,0,1-1.386-6.468,15.327,15.327,0,0,1,1.025-5.66,13.848,13.848,0,0,1,3-4.664,13.535,13.535,0,0,1,4.577-3.1,14.4,14.4,0,0,1,5.487-1.069,14.58,14.58,0,0,1,4.374.635,14.272,14.272,0,0,1,3.97,1.935Zm8.273,18.567V30.322h6.411V40.3h10.467V30.322h6.367V57.495h-6.367V46.088H316.659V57.495Z" transform="translate(-33.493 -4.342)" fill="#09949f"/>
      </g>
    </g>
  </g>
</svg>
